<svg version="1.1" viewBox="0.0 0.0 800.0 600.0" fill="none" stroke="none" stroke-linecap="square" stroke-miterlimit="10" xmlns:xlink="http://www.w3.org/1999/xlink" xmlns="http://www.w3.org/2000/svg"><clipPath id="p.0"><path d="m0 0l800.0 0l0 600.0l-800.0 0l0 -600.0z" clip-rule="nonzero"/></clipPath><g clip-path="url(#p.0)"><path fill="#000000" fill-opacity="0.0" d="m0 0l800.0 0l0 600.0l-800.0 0z" fill-rule="evenodd"/><path fill="#ffffff" d="m503.30185 25.997375c-22.958008 0 -41.590576 18.632545 -41.590576 41.590553c0 22.960625 18.632568 41.59317 41.590576 41.59317c22.957977 0 41.590546 -18.632545 41.590546 -41.59317c0 -22.958008 -18.632568 -41.590553 -41.590546 -41.590553z" fill-rule="evenodd"/><path stroke="#000000" stroke-width="2.1627296587926508" stroke-miterlimit="63.384754" stroke-linecap="butt" d="m503.30185 25.997375c-22.958008 0 -41.590576 18.632545 -41.590576 41.590553c0 22.960625 18.632568 41.59317 41.590576 41.59317c22.957977 0 41.590546 -18.632545 41.590546 -41.59317c0 -22.958008 -18.632568 -41.590553 -41.590546 -41.590553z" fill-rule="evenodd"/><path fill="#000000" d="m503.6568 77.392365q-1.671875 0 -3.0625 -0.546875q-1.390625 -0.5625 -2.390625 -1.75q-1.0 -1.1875 -1.53125 -2.96875q-0.53125 -1.78125 -0.53125 -4.21875q0 -3.015625 0.9375 -5.21875q0.9375 -2.203125 2.71875 -3.375q1.796875 -1.1875 4.125 -1.1875q2.484375 0 4.203125 1.109375q1.71875 1.109375 2.5625 3.21875q0.859375 2.109375 0.859375 5.078125q0 3.15625 -0.96875 5.390625q-0.953125 2.21875 -2.765625 3.34375q-1.796875 1.125 -4.15625 1.125zm-3.734375 -9.84375q0 3.84375 1.046875 5.734375q1.0625 1.875 2.96875 1.875q1.203125 0 2.0625 -0.78125q0.859375 -0.78125 1.3125 -2.40625q0.46875 -1.640625 0.46875 -3.890625q0 -2.765625 -0.546875 -4.515625q-0.53125 -1.75 -1.40625 -2.46875q-0.875 -0.734375 -2.0 -0.734375q-1.015625 0 -1.734375 0.46875q-0.703125 0.46875 -1.203125 1.375q-0.5 0.90625 -0.734375 2.265625q-0.234375 1.359375 -0.234375 3.078125z" fill-rule="nonzero"/><path fill="#ffffff" d="m170.5748 192.3622c-22.960632 0 -41.59317 18.632553 -41.59317 41.59056c0 22.958008 18.632538 41.590546 41.59317 41.590546c22.958008 0 41.59056 -18.632538 41.59056 -41.590546c0 -22.958008 -18.632553 -41.59056 -41.59056 -41.59056z" fill-rule="evenodd"/><path stroke="#000000" stroke-width="2.1627296587926508" stroke-miterlimit="63.384754" stroke-linecap="butt" d="m170.5748 192.3622c-22.960632 0 -41.59317 18.632553 -41.59317 41.59056c0 22.958008 18.632538 41.590546 41.59317 41.590546c22.958008 0 41.59056 -18.632538 41.59056 -41.590546c0 -22.958008 -18.632553 -41.59056 -41.59056 -41.59056z" fill-rule="evenodd"/><path fill="#000000" d="m162.79306 238.41344q0.328125 1.46875 0.703125 2.03125q0.375 0.546875 0.953125 0.8125q0.578125 0.265625 1.5625 0.265625q1.296875 0 1.9375 -0.640625q0.65625 -0.640625 0.65625 -1.921875q0 -0.859375 -0.28125 -1.40625q-0.28125 -0.546875 -0.96875 -1.0625q-0.6875 -0.53125 -2.234375 -1.296875q-1.578125 -0.78125 -2.53125 -1.546875q-0.953125 -0.78125 -1.453125 -1.75q-0.484375 -0.96875 -0.484375 -2.09375q0 -1.609375 0.765625 -2.8125q0.78125 -1.21875 2.234375 -1.859375q1.453125 -0.640625 3.265625 -0.640625q1.015625 0 1.984375 0.109375q0.984375 0.09375 2.859375 0.578125l0 4.484375l-2.265625 0q-0.375 -1.453125 -0.765625 -1.984375q-0.375 -0.53125 -0.859375 -0.734375q-0.484375 -0.203125 -1.359375 -0.203125q-0.71875 0 -1.265625 0.25q-0.546875 0.25 -0.859375 0.75q-0.296875 0.5 -0.296875 1.203125q0 0.78125 0.265625 1.3125q0.28125 0.53125 0.921875 1.03125q0.640625 0.484375 1.96875 1.140625q1.71875 0.859375 2.6875 1.625q0.984375 0.765625 1.5625 1.796875q0.578125 1.03125 0.578125 2.390625q0 1.5 -0.484375 2.546875q-0.484375 1.046875 -1.34375 1.71875q-0.859375 0.671875 -2.015625 0.96875q-1.140625 0.28125 -2.46875 0.28125q-2.109375 0 -5.265625 -0.8125l0 -4.53125l2.296875 0z" fill-rule="nonzero"/><path fill="#000000" d="m179.01706 250.92906q0 0.46875 0.03125 0.65625q0.046875 0.1875 0.125 0.28125q0.078125 0.09375 0.28125 0.15625q0.21875 0.0625 0.59375 0.109375q0.390625 0.046875 1.390625 0.078125l0 1.34375l-7.140625 0l0 -1.34375q1.28125 -0.046875 1.640625 -0.109375q0.375 -0.078125 0.515625 -0.171875q0.140625 -0.09375 0.203125 -0.265625q0.0625 -0.1875 0.0625 -0.734375l0 -7.03125q0 -0.234375 -0.03125 -0.265625q-0.03125 -0.046875 -0.078125 -0.046875q-0.1875 0 -0.65625 0.265625q-0.453125 0.265625 -1.53125 0.96875l-0.734375 -1.3125l4.453125 -2.65625l0.9375 0q-0.0625 1.21875 -0.0625 2.671875l0 7.40625z" fill-rule="nonzero"/><path fill="#000000" fill-opacity="0.0" d="m168.89502 463.7638l293.92126 -227.68506" fill-rule="evenodd"/><path stroke="#000000" stroke-width="2.0" stroke-linejoin="round" stroke-linecap="butt" d="m168.89502 463.7638l293.92126 -227.68506" fill-rule="evenodd"/><path fill="#ffffff" d="m170.5748 421.11285c-22.960632 0 -41.59317 18.632538 -41.59317 41.590546c0 22.958008 18.632538 41.590576 41.59317 41.590576c22.958008 0 41.59056 -18.632568 41.59056 -41.590576c0 -22.958008 -18.632553 -41.590546 -41.59056 -41.590546z" fill-rule="evenodd"/><path stroke="#000000" stroke-width="2.1627296587926508" stroke-miterlimit="63.384754" stroke-linecap="butt" d="m170.5748 421.11285c-22.960632 0 -41.59317 18.632538 -41.59317 41.590546c0 22.958008 18.632538 41.590576 41.59317 41.590576c22.958008 0 41.59056 -18.632568 41.59056 -41.590576c0 -22.958008 -18.632553 -41.590546 -41.59056 -41.590546z" fill-rule="evenodd"/><path fill="#000000" d="m162.79306 467.1641q0.328125 1.46875 0.703125 2.03125q0.375 0.546875 0.953125 0.8125q0.578125 0.265625 1.5625 0.265625q1.296875 0 1.9375 -0.640625q0.65625 -0.640625 0.65625 -1.921875q0 -0.859375 -0.28125 -1.40625q-0.28125 -0.546875 -0.96875 -1.0625q-0.6875 -0.53125 -2.234375 -1.296875q-1.578125 -0.78125 -2.53125 -1.546875q-0.953125 -0.78125 -1.453125 -1.75q-0.484375 -0.96875 -0.484375 -2.09375q0 -1.609375 0.765625 -2.8125q0.78125 -1.21875 2.234375 -1.859375q1.453125 -0.640625 3.265625 -0.640625q1.015625 0 1.984375 0.109375q0.984375 0.09375 2.859375 0.578125l0 4.484375l-2.265625 0q-0.375 -1.453125 -0.765625 -1.984375q-0.375 -0.53125 -0.859375 -0.734375q-0.484375 -0.203125 -1.359375 -0.203125q-0.71875 0 -1.265625 0.25q-0.546875 0.25 -0.859375 0.75q-0.296875 0.5 -0.296875 1.203125q0 0.78125 0.265625 1.3125q0.28125 0.53125 0.921875 1.03125q0.640625 0.484375 1.96875 1.140625q1.71875 0.859375 2.6875 1.625q0.984375 0.765625 1.5625 1.796875q0.578125 1.03125 0.578125 2.390625q0 1.5 -0.484375 2.546875q-0.484375 1.046875 -1.34375 1.71875q-0.859375 0.671875 -2.015625 0.96875q-1.140625 0.28125 -2.46875 0.28125q-2.109375 0 -5.265625 -0.8125l0 -4.53125l2.296875 0z" fill-rule="nonzero"/><path fill="#000000" d="m178.72018 480.19534q0.390625 0 0.578125 -0.03125q0.203125 -0.046875 0.296875 -0.109375q0.09375 -0.078125 0.15625 -0.21875q0.078125 -0.15625 0.296875 -0.78125l1.359375 0l-0.171875 3.25l-7.84375 0l0 -0.84375q0.40625 -1.015625 1.0625 -1.984375q0.65625 -0.984375 1.828125 -2.296875q0.984375 -1.109375 1.4375 -1.671875q0.46875 -0.578125 0.671875 -1.0q0.21875 -0.4375 0.3125 -0.796875q0.109375 -0.359375 0.109375 -0.71875q0 -0.578125 -0.1875 -1.0q-0.171875 -0.421875 -0.515625 -0.640625q-0.328125 -0.234375 -0.875 -0.234375q-1.34375 0 -1.921875 1.8125l-1.671875 0l0 -2.265625q1.28125 -0.59375 2.234375 -0.828125q0.96875 -0.234375 1.734375 -0.234375q1.75 0 2.6875 0.8125q0.9375 0.796875 0.9375 2.3125q0 0.5 -0.109375 0.9375q-0.09375 0.421875 -0.3125 0.828125q-0.203125 0.40625 -0.546875 0.875q-0.34375 0.453125 -0.75 0.90625q-0.40625 0.453125 -1.390625 1.484375q-1.625 1.71875 -2.046875 2.4375l2.640625 0z" fill-rule="nonzero"/><path fill="#ffffff" d="m607.2808 358.72702c-22.960632 0 -41.59314 18.632568 -41.59314 41.590576c0 22.958008 18.632507 41.590546 41.59314 41.590546c22.958008 0 41.590576 -18.632538 41.590576 -41.590546c0 -22.958008 -18.632568 -41.590576 -41.590576 -41.590576z" fill-rule="evenodd"/><path stroke="#000000" stroke-width="2.1627296587926508" stroke-miterlimit="63.384754" stroke-linecap="butt" d="m607.2808 358.72702c-22.960632 0 -41.59314 18.632568 -41.59314 41.590576c0 22.958008 18.632507 41.590546 41.59314 41.590546c22.958008 0 41.590576 -18.632538 41.590576 -41.590546c0 -22.958008 -18.632568 -41.590576 -41.590576 -41.590576z" fill-rule="evenodd"/><path fill="#000000" d="m599.4991 404.77695q0.328125 1.46875 0.703125 2.03125q0.375 0.546875 0.953125 0.8125q0.578125 0.265625 1.5625 0.265625q1.296875 0 1.9375 -0.640625q0.65625 -0.640625 0.65625 -1.921875q0 -0.859375 -0.28125 -1.40625q-0.28125 -0.546875 -0.96875 -1.0625q-0.6875 -0.53125 -2.234375 -1.296875q-1.578125 -0.78125 -2.53125 -1.546875q-0.953125 -0.78125 -1.453125 -1.75q-0.484375 -0.96875 -0.484375 -2.09375q0 -1.609375 0.765625 -2.8125q0.78125 -1.21875 2.234375 -1.859375q1.453125 -0.640625 3.265625 -0.640625q1.015625 0 1.984375 0.109375q0.984375 0.09375 2.859375 0.578125l0 4.484375l-2.265625 0q-0.375 -1.453125 -0.765625 -1.984375q-0.375 -0.53125 -0.859375 -0.734375q-0.484375 -0.203125 -1.359375 -0.203125q-0.71875 0 -1.265625 0.25q-0.546875 0.25 -0.859375 0.75q-0.296875 0.5 -0.296875 1.203125q0 0.78125 0.265625 1.3125q0.28125 0.53125 0.921875 1.03125q0.640625 0.484375 1.96875 1.140625q1.71875 0.859375 2.6875 1.625q0.984375 0.765625 1.5625 1.796875q0.578125 1.03125 0.578125 2.390625q0 1.5 -0.484375 2.546875q-0.484375 1.046875 -1.34375 1.71875q-0.859375 0.671875 -2.015625 0.96875q-1.140625 0.28125 -2.46875 0.28125q-2.109375 0 -5.265625 -0.8125l0 -4.53125l2.296875 0z" fill-rule="nonzero"/><path fill="#000000" d="m610.3481 410.52695l0 -2.234375q1.25 -0.59375 2.15625 -0.828125q0.921875 -0.25 1.78125 -0.25q1.0625 0 1.875 0.34375q0.8125 0.328125 1.265625 1.0q0.453125 0.65625 0.453125 1.546875q0 0.84375 -0.34375 1.46875q-0.328125 0.625 -0.90625 1.09375q-0.578125 0.453125 -1.484375 0.609375l-0.03125 -0.078125q0.546875 -0.171875 1.078125 0.09375q0.53125 0.25 0.953125 0.65625q0.4375 0.390625 0.703125 0.96875q0.265625 0.578125 0.265625 1.3125q0 1.09375 -0.5 1.96875q-0.484375 0.859375 -1.484375 1.359375q-0.984375 0.5 -2.359375 0.5q-0.765625 0 -1.671875 -0.171875q-0.890625 -0.1875 -1.875 -0.5625l0 -2.4375l1.671875 0q0.34375 1.046875 0.75 1.390625q0.40625 0.328125 1.140625 0.328125q0.96875 0 1.4375 -0.5q0.484375 -0.515625 0.484375 -1.578125q0 -1.109375 -0.65625 -1.671875q-0.65625 -0.578125 -1.984375 -0.578125l-1.140625 0l0 -1.46875q1.4375 -0.078125 2.15625 -0.421875q0.71875 -0.34375 1.046875 -0.859375q0.34375 -0.515625 0.34375 -1.140625q0 -0.828125 -0.40625 -1.234375q-0.40625 -0.421875 -1.234375 -0.421875q-0.671875 0 -1.109375 0.375q-0.421875 0.359375 -0.6875 1.421875l-1.6875 0z" fill-rule="nonzero"/><path fill="#ffffff" d="m461.71127 192.3622c-22.957977 0 -41.590546 18.632553 -41.590546 41.59056c0 22.958008 18.632568 41.590546 41.590546 41.590546c22.958008 0 41.590576 -18.632538 41.590576 -41.590546c0 -22.958008 -18.632568 -41.59056 -41.590576 -41.59056z" fill-rule="evenodd"/><path stroke="#000000" stroke-width="2.1627296587926508" stroke-miterlimit="63.384754" stroke-linecap="butt" d="m461.71127 192.3622c-22.957977 0 -41.590546 18.632553 -41.590546 41.59056c0 22.958008 18.632568 41.590546 41.590546 41.590546c22.958008 0 41.590576 -18.632538 41.590576 -41.590546c0 -22.958008 -18.632568 -41.59056 -41.590576 -41.59056z" fill-rule="evenodd"/><path fill="#000000" d="m469.0904 224.69469l0 5.03125l-2.21875 0q-0.390625 -1.234375 -0.640625 -1.71875q-0.234375 -0.484375 -0.453125 -0.6875q-0.203125 -0.21875 -0.484375 -0.296875q-0.28125 -0.09375 -0.84375 -0.09375l-3.265625 0l0 5.984375l2.140625 0q0.421875 0 0.609375 -0.109375q0.1875 -0.109375 0.34375 -0.4375q0.171875 -0.328125 0.453125 -1.640625l2.203125 0l0 6.59375l-2.203125 0q-0.28125 -1.25 -0.453125 -1.59375q-0.171875 -0.34375 -0.34375 -0.453125q-0.171875 -0.109375 -0.609375 -0.109375l-2.140625 0l0 4.546875q0 0.734375 0.078125 1.109375q0.078125 0.375 0.1875 0.546875q0.125 0.15625 0.375 0.265625q0.265625 0.09375 1.1875 0.28125l0 1.640625l-6.875 0l0 -1.609375q1.078125 -0.28125 1.234375 -0.421875q0.15625 -0.15625 0.21875 -0.5q0.0625 -0.359375 0.0625 -1.265625l0 -11.265625q0 -0.84375 -0.046875 -1.171875q-0.046875 -0.34375 -0.125 -0.453125q-0.078125 -0.125 -0.25 -0.203125q-0.15625 -0.09375 -1.09375 -0.375l0 -1.59375l12.953125 0z" fill-rule="nonzero"/><path fill="#000000" fill-opacity="0.0" d="m170.5748 275.5433l0 145.56955" fill-rule="evenodd"/><path stroke="#000000" stroke-width="2.1627296587926508" stroke-miterlimit="63.384754" stroke-linecap="butt" d="m170.5748 275.5433l0 145.56955" fill-rule="evenodd"/><path fill="#ffffff" d="m180.00885 332.3294l22.722458 0l0 32.0l-22.722458 0l0 -32.0z" fill-rule="nonzero"/><path fill="#000000" fill-opacity="0.0" d="m180.00885 337.16928l12.88559 0l0 31.276855l-12.88559 0l0 -31.276855z" fill-rule="nonzero"/><path fill="#000000" d="m187.33698 348.96066l1.234375 -1.578125q0.25 -0.3125 0.375 -0.5625q0.140625 -0.25 0.140625 -0.46875q0 -0.046875 -0.078125 -0.109375q-0.078125 -0.0625 -0.84375 -0.21875l0 -1.625l5.359375 0l0 1.578125q-0.78125 0.234375 -1.234375 0.609375q-0.453125 0.359375 -1.15625 1.234375l-2.4375 2.984375l2.71875 3.640625q0.609375 0.8125 1.046875 1.21875q0.453125 0.40625 1.234375 0.6875l0 1.578125l-6.328125 0l0 -1.671875q1.078125 -0.125 1.078125 -0.3125q0 -0.1875 -0.0625 -0.34375q-0.0625 -0.15625 -0.265625 -0.421875l-1.453125 -2.046875l-1.5625 2.015625q-0.1875 0.25 -0.28125 0.40625q-0.078125 0.15625 -0.078125 0.328125q0 0.125 0.078125 0.203125q0.09375 0.078125 0.921875 0.15625l0 1.6875l-5.4375 0l0 -1.578125q0.734375 -0.25 1.015625 -0.453125q0.296875 -0.203125 0.625 -0.53125q0.34375 -0.34375 0.90625 -1.046875l2.4375 -3.03125l-2.515625 -3.453125q-0.5625 -0.75 -0.859375 -1.0625q-0.296875 -0.328125 -0.53125 -0.46875q-0.234375 -0.15625 -0.828125 -0.3125l0 -1.59375l6.203125 0l0 1.640625q-1.03125 0.15625 -1.03125 0.34375q0 0.1875 0.09375 0.40625q0.09375 0.21875 0.359375 0.53125l1.15625 1.640625z" fill-rule="nonzero"/><path fill="#010000" fill-opacity="0.0" d="m192.89444 354.0936l9.836868 0l0 20.844788l-9.836868 0l0 -20.844788z" fill-rule="nonzero"/><path fill="#000000" d="m197.36319 366.8669q0.71875 -0.1875 0.828125 -0.28125q0.109375 -0.09375 0.140625 -0.328125q0.046875 -0.25 0.046875 -0.859375l0 -1.0625l-4.8125 0l0 -1.109375l5.25 -7.921875l1.78125 0l-0.171875 7.640625l0 -0.171875q0.4375 0 0.578125 -0.046875q0.140625 -0.046875 0.21875 -0.15625q0.09375 -0.109375 0.28125 -0.734375l1.296875 0l-0.140625 2.5l-2.0625 0l0 1.0625q0 0.546875 0.03125 0.78125q0.03125 0.21875 0.078125 0.3125q0.0625 0.078125 0.171875 0.15625q0.109375 0.0625 0.734375 0.21875l0 1.0625l-4.25 0l0 -1.0625zm-1.90625 -3.84375l2.921875 -0.25l0 -1.796875q0 -0.8125 0.03125 -1.828125q0.03125 -1.015625 0.328125 -1.421875l0.09375 0.078125l-3.125 5.328125l-0.25 -0.109375z" fill-rule="nonzero"/><path fill="#000000" fill-opacity="0.0" d="m212.16536 233.95276l207.95537 0" fill-rule="evenodd"/><path stroke="#000000" stroke-width="2.1627296587926508" stroke-miterlimit="63.384754" stroke-linecap="butt" d="m212.16536 233.95276l207.95537 0" fill-rule="evenodd"/><path fill="#ffffff" d="m304.78052 217.95407l22.722443 0l0 32.0l-22.722443 0l0 -32.0z" fill-rule="nonzero"/><path fill="#000000" fill-opacity="0.0" d="m304.78052 222.79395l12.88559 0l0 31.27684l-12.88559 0l0 -31.27684z" fill-rule="nonzero"/><path fill="#000000" d="m312.10864 234.58531l1.234375 -1.578125q0.25 -0.3125 0.375 -0.5625q0.140625 -0.25 0.140625 -0.46875q0 -0.046875 -0.078125 -0.109375q-0.078125 -0.0625 -0.84375 -0.21875l0 -1.625l5.359375 0l0 1.578125q-0.78125 0.234375 -1.234375 0.609375q-0.453125 0.359375 -1.15625 1.234375l-2.4375 2.984375l2.71875 3.640625q0.609375 0.8125 1.046875 1.21875q0.453125 0.40625 1.234375 0.6875l0 1.578125l-6.328125 0l0 -1.671875q1.078125 -0.125 1.078125 -0.3125q0 -0.1875 -0.0625 -0.34375q-0.0625 -0.15625 -0.265625 -0.421875l-1.453125 -2.046875l-1.5625 2.015625q-0.1875 0.25 -0.28125 0.40625q-0.078125 0.15625 -0.078125 0.328125q0 0.125 0.078125 0.203125q0.09375 0.078125 0.921875 0.15625l0 1.6875l-5.4375 0l0 -1.578125q0.734375 -0.25 1.015625 -0.453125q0.296875 -0.203125 0.625 -0.53125q0.34375 -0.34375 0.90625 -1.046875l2.4375 -3.03125l-2.515625 -3.453125q-0.5625 -0.75 -0.859375 -1.0625q-0.296875 -0.328125 -0.53125 -0.46875q-0.234375 -0.15625 -0.828125 -0.3125l0 -1.59375l6.203125 0l0 1.640625q-1.03125 0.15625 -1.03125 0.34375q0 0.1875 0.09375 0.40625q0.09375 0.21875 0.359375 0.53125l1.15625 1.640625z" fill-rule="nonzero"/><path fill="#010000" fill-opacity="0.0" d="m317.6661 239.71826l9.836853 0l0 20.844788l-9.836853 0l0 -20.844788z" fill-rule="nonzero"/><path fill="#000000" d="m326.2911 241.56969l0 0.90625q-1.609375 0 -2.5625 0.53125q-0.953125 0.515625 -1.59375 1.5625q-0.625 1.03125 -1.125 2.359375l-0.0625 -0.09375q0.578125 -0.640625 1.34375 -0.890625q0.765625 -0.265625 1.65625 -0.265625q1.078125 0 1.859375 0.484375q0.78125 0.484375 1.15625 1.34375q0.390625 0.859375 0.390625 1.984375q0 1.203125 -0.484375 2.171875q-0.46875 0.953125 -1.46875 1.5q-0.984375 0.53125 -2.40625 0.53125q-2.078125 0 -3.140625 -1.296875q-1.0625 -1.296875 -1.0625 -3.71875q0 -1.609375 0.5 -3.015625q0.515625 -1.40625 1.453125 -2.453125q0.953125 -1.0625 2.1875 -1.671875q1.25 -0.609375 2.8125 -0.703125l0.546875 0.734375zm-2.953125 5.734375q-0.375 0 -0.734375 0.09375q-0.34375 0.078125 -0.65625 0.25q-0.3125 0.15625 -0.609375 0.40625q-0.0625 0.046875 -0.0625 0.078125q-0.0625 0.109375 -0.09375 0.3125q-0.015625 0.203125 -0.015625 0.765625q0 1.546875 0.46875 2.296875q0.484375 0.734375 1.40625 0.734375q0.5625 0 0.921875 -0.1875q0.375 -0.1875 0.609375 -0.515625q0.234375 -0.328125 0.328125 -0.8125q0.109375 -0.484375 0.109375 -1.0625q0 -1.15625 -0.453125 -1.75q-0.4375 -0.609375 -1.21875 -0.609375z" fill-rule="nonzero"/><path fill="#000000" fill-opacity="0.0" d="m566.18896 406.8058l-354.02362 55.897614" fill-rule="evenodd"/><path stroke="#000000" stroke-width="2.1627296587926508" stroke-miterlimit="63.384754" stroke-linecap="butt" d="m566.18896 406.8058l-354.02362 55.897614" fill-rule="evenodd"/><path fill="#ffffff" d="m377.8146 418.7559l22.722473 0l0 32.0l-22.722473 0l0 -32.0z" fill-rule="nonzero"/><path fill="#000000" fill-opacity="0.0" d="m377.8146 423.5958l12.88559 0l0 31.276825l-12.88559 0l0 -31.276825z" fill-rule="nonzero"/><path fill="#000000" d="m385.14273 435.38715l1.234375 -1.578125q0.25 -0.3125 0.375 -0.5625q0.140625 -0.25 0.140625 -0.46875q0 -0.046875 -0.078125 -0.109375q-0.078125 -0.0625 -0.84375 -0.21875l0 -1.625l5.359375 0l0 1.578125q-0.78125 0.234375 -1.234375 0.609375q-0.453125 0.359375 -1.15625 1.234375l-2.4375 2.984375l2.71875 3.640625q0.609375 0.8125 1.046875 1.21875q0.453125 0.40625 1.234375 0.6875l0 1.578125l-6.328125 0l0 -1.671875q1.078125 -0.125 1.078125 -0.3125q0 -0.1875 -0.0625 -0.34375q-0.0625 -0.15625 -0.265625 -0.421875l-1.453125 -2.046875l-1.5625 2.015625q-0.1875 0.25 -0.28125 0.40625q-0.078125 0.15625 -0.078125 0.328125q0 0.125 0.078125 0.203125q0.09375 0.078125 0.921875 0.15625l0 1.6875l-5.4375 0l0 -1.578125q0.734375 -0.25 1.015625 -0.453125q0.296875 -0.203125 0.625 -0.53125q0.34375 -0.34375 0.90625 -1.046875l2.4375 -3.03125l-2.515625 -3.453125q-0.5625 -0.75 -0.859375 -1.0625q-0.296875 -0.328125 -0.53125 -0.46875q-0.234375 -0.15625 -0.828125 -0.3125l0 -1.59375l6.203125 0l0 1.640625q-1.03125 0.15625 -1.03125 0.34375q0 0.1875 0.09375 0.40625q0.09375 0.21875 0.359375 0.53125l1.15625 1.640625z" fill-rule="nonzero"/><path fill="#010000" fill-opacity="0.0" d="m390.7002 440.52008l9.836884 0l0 20.844818l-9.836884 0l0 -20.844818z" fill-rule="nonzero"/><path fill="#000000" d="m400.3252 442.65277l-5.1875 11.765625l-1.84375 0l0 -0.859375l4.671875 -9.90625l0.234375 0.078125l-3.6875 0.234375q-0.3125 0 -0.46875 0.046875q-0.140625 0.046875 -0.234375 0.125q-0.078125 0.0625 -0.15625 0.21875q-0.0625 0.140625 -0.28125 0.96875l-1.40625 0l0.203125 -3.53125l8.15625 0l0 0.859375z" fill-rule="nonzero"/><path fill="#000000" fill-opacity="0.0" d="m590.6722 395.2204l-381.1681 -146.46187" fill-rule="evenodd"/><path stroke="#000000" stroke-width="2.1627296587926508" stroke-miterlimit="63.384754" stroke-linecap="butt" d="m590.6722 395.2204l-381.1681 -146.46187" fill-rule="evenodd"/><path fill="#ffffff" d="m388.72552 305.99088l22.722473 0l0 32.0l-22.722473 0l0 -32.0z" fill-rule="nonzero"/><path fill="#000000" fill-opacity="0.0" d="m388.72552 310.83075l12.88559 0l0 31.276855l-12.88559 0l0 -31.276855z" fill-rule="nonzero"/><path fill="#000000" d="m396.05365 322.62213l1.234375 -1.578125q0.25 -0.3125 0.375 -0.5625q0.140625 -0.25 0.140625 -0.46875q0 -0.046875 -0.078125 -0.109375q-0.078125 -0.0625 -0.84375 -0.21875l0 -1.625l5.359375 0l0 1.578125q-0.78125 0.234375 -1.234375 0.609375q-0.453125 0.359375 -1.15625 1.234375l-2.4375 2.984375l2.71875 3.640625q0.609375 0.8125 1.046875 1.21875q0.453125 0.40625 1.234375 0.6875l0 1.578125l-6.328125 0l0 -1.671875q1.078125 -0.125 1.078125 -0.3125q0 -0.1875 -0.0625 -0.34375q-0.0625 -0.15625 -0.265625 -0.421875l-1.453125 -2.046875l-1.5625 2.015625q-0.1875 0.25 -0.28125 0.40625q-0.078125 0.15625 -0.078125 0.328125q0 0.125 0.078125 0.203125q0.09375 0.078125 0.921875 0.15625l0 1.6875l-5.4375 0l0 -1.578125q0.734375 -0.25 1.015625 -0.453125q0.296875 -0.203125 0.625 -0.53125q0.34375 -0.34375 0.90625 -1.046875l2.4375 -3.03125l-2.515625 -3.453125q-0.5625 -0.75 -0.859375 -1.0625q-0.296875 -0.328125 -0.53125 -0.46875q-0.234375 -0.15625 -0.828125 -0.3125l0 -1.59375l6.203125 0l0 1.640625q-1.03125 0.15625 -1.03125 0.34375q0 0.1875 0.09375 0.40625q0.09375 0.21875 0.359375 0.53125l1.15625 1.640625z" fill-rule="nonzero"/><path fill="#010000" fill-opacity="0.0" d="m401.6111 327.75507l9.836884 0l0 20.844788l-9.836884 0l0 -20.844788z" fill-rule="nonzero"/><path fill="#000000" d="m402.908 340.99713l0 -2.4375l1.671875 0q0.3125 1.03125 0.734375 1.375q0.4375 0.34375 1.15625 0.34375q0.96875 0 1.46875 -0.578125q0.5 -0.578125 0.5 -1.828125q0 -0.828125 -0.265625 -1.34375q-0.265625 -0.515625 -0.71875 -0.734375q-0.4375 -0.234375 -1.046875 -0.234375q-0.5625 0 -0.953125 0.078125q-0.390625 0.0625 -1.015625 0.265625l-1.0 -0.609375l0 -6.265625l5.125 0q0.234375 0 0.28125 -0.015625q0.0625 -0.015625 0.09375 -0.0625q0.03125 -0.046875 0.21875 -0.484375l1.28125 0l-0.15625 2.71875l-4.984375 0l-0.03125 2.96875q0.03125 -0.046875 0.59375 -0.140625q0.5625 -0.109375 1.125 -0.109375q1.125 0 2.0 0.46875q0.890625 0.453125 1.375 1.328125q0.484375 0.859375 0.484375 1.96875q0 1.265625 -0.546875 2.1875q-0.546875 0.921875 -1.546875 1.40625q-1.0 0.46875 -2.34375 0.46875q-1.5625 0 -3.5 -0.734375z" fill-rule="nonzero"/><path fill="#000000" fill-opacity="0.0" d="m207.83989 215.48819l258.36218 -129.26509" fill-rule="evenodd"/><path stroke="#000000" stroke-width="2.1627296587926508" stroke-miterlimit="63.384754" stroke-linecap="butt" d="m207.83989 215.48819l258.36218 -129.26509" fill-rule="evenodd"/><path fill="#ffffff" d="m325.65976 134.85432l22.722473 0l0 32.0l-22.722473 0l0 -32.0z" fill-rule="nonzero"/><path fill="#000000" fill-opacity="0.0" d="m325.65976 139.69421l12.88559 0l0 31.27684l-12.88559 0l0 -31.27684z" fill-rule="nonzero"/><path fill="#000000" d="m332.98788 151.48558l1.234375 -1.578125q0.25 -0.3125 0.375 -0.5625q0.140625 -0.25 0.140625 -0.46875q0 -0.046875 -0.078125 -0.109375q-0.078125 -0.0625 -0.84375 -0.21875l0 -1.625l5.359375 0l0 1.578125q-0.78125 0.234375 -1.234375 0.609375q-0.453125 0.359375 -1.15625 1.234375l-2.4375 2.984375l2.71875 3.640625q0.609375 0.8125 1.046875 1.21875q0.453125 0.40625 1.234375 0.6875l0 1.578125l-6.328125 0l0 -1.671875q1.078125 -0.125 1.078125 -0.3125q0 -0.1875 -0.0625 -0.34375q-0.0625 -0.15625 -0.265625 -0.421875l-1.453125 -2.046875l-1.5625 2.015625q-0.1875 0.25 -0.28125 0.40625q-0.078125 0.15625 -0.078125 0.328125q0 0.125 0.078125 0.203125q0.09375 0.078125 0.921875 0.15625l0 1.6875l-5.4375 0l0 -1.578125q0.734375 -0.25 1.015625 -0.453125q0.296875 -0.203125 0.625 -0.53125q0.34375 -0.34375 0.90625 -1.046875l2.4375 -3.03125l-2.515625 -3.453125q-0.5625 -0.75 -0.859375 -1.0625q-0.296875 -0.328125 -0.53125 -0.46875q-0.234375 -0.15625 -0.828125 -0.3125l0 -1.59375l6.203125 0l0 1.640625q-1.03125 0.15625 -1.03125 0.34375q0 0.1875 0.09375 0.40625q0.09375 0.21875 0.359375 0.53125l1.15625 1.640625z" fill-rule="nonzero"/><path fill="#010000" fill-opacity="0.0" d="m338.54535 156.61852l9.836884 0l0 20.844803l-9.836884 0l0 -20.844803z" fill-rule="nonzero"/><path fill="#000000" d="m345.29535 167.82933q0 0.46875 0.03125 0.65625q0.046875 0.1875 0.125 0.28125q0.078125 0.09375 0.28125 0.15625q0.21875 0.0625 0.59375 0.109375q0.390625 0.046875 1.390625 0.078125l0 1.34375l-7.140625 0l0 -1.34375q1.28125 -0.046875 1.640625 -0.109375q0.375 -0.078125 0.515625 -0.171875q0.140625 -0.09375 0.203125 -0.265625q0.0625 -0.1875 0.0625 -0.734375l0 -7.03125q0 -0.234375 -0.03125 -0.265625q-0.03125 -0.046875 -0.078125 -0.046875q-0.1875 0 -0.65625 0.265625q-0.453125 0.265625 -1.53125 0.96875l-0.734375 -1.3125l4.453125 -2.65625l0.9375 0q-0.0625 1.21875 -0.0625 2.671875l0 7.40625z" fill-rule="nonzero"/><path fill="#000000" fill-opacity="0.0" d="m348.38223 156.61852l0 0l0 20.844803l0 0l0 -20.844803z" fill-rule="nonzero"/><path fill="#000000" fill-opacity="0.0" d="m594.80316 360.72177l-79.02362 -253.37268" fill-rule="evenodd"/><path stroke="#000000" stroke-width="2.1627296587926508" stroke-miterlimit="63.384754" stroke-linecap="butt" d="m594.80316 360.72177l-79.02362 -253.37268" fill-rule="evenodd"/><path fill="#ffffff" d="m543.9288 218.03674l22.722473 0l0 32.0l-22.722473 0l0 -32.0z" fill-rule="nonzero"/><path fill="#000000" fill-opacity="0.0" d="m543.9288 222.87662l12.88562 0l0 31.27684l-12.88562 0l0 -31.27684z" fill-rule="nonzero"/><path fill="#000000" d="m551.2569 234.66798l1.234375 -1.578125q0.25 -0.3125 0.375 -0.5625q0.140625 -0.25 0.140625 -0.46875q0 -0.046875 -0.078125 -0.109375q-0.078125 -0.0625 -0.84375 -0.21875l0 -1.625l5.359375 0l0 1.578125q-0.78125 0.234375 -1.234375 0.609375q-0.453125 0.359375 -1.15625 1.234375l-2.4375 2.984375l2.71875 3.640625q0.609375 0.8125 1.046875 1.21875q0.453125 0.40625 1.234375 0.6875l0 1.578125l-6.328125 0l0 -1.671875q1.078125 -0.125 1.078125 -0.3125q0 -0.1875 -0.0625 -0.34375q-0.0625 -0.15625 -0.265625 -0.421875l-1.453125 -2.046875l-1.5625 2.015625q-0.1875 0.25 -0.28125 0.40625q-0.078125 0.15625 -0.078125 0.328125q0 0.125 0.078125 0.203125q0.09375 0.078125 0.921875 0.15625l0 1.6875l-5.4375 0l0 -1.578125q0.734375 -0.25 1.015625 -0.453125q0.296875 -0.203125 0.625 -0.53125q0.34375 -0.34375 0.90625 -1.046875l2.4375 -3.03125l-2.515625 -3.453125q-0.5625 -0.75 -0.859375 -1.0625q-0.296875 -0.328125 -0.53125 -0.46875q-0.234375 -0.15625 -0.828125 -0.3125l0 -1.59375l6.203125 0l0 1.640625q-1.03125 0.15625 -1.03125 0.34375q0 0.1875 0.09375 0.40625q0.09375 0.21875 0.359375 0.53125l1.15625 1.640625z" fill-rule="nonzero"/><path fill="#010000" fill-opacity="0.0" d="m556.8144 239.80092l9.836853 0l0 20.844803l-9.836853 0l0 -20.844803z" fill-rule="nonzero"/><path fill="#000000" d="m558.1894 244.24611l0 -2.234375q1.25 -0.59375 2.15625 -0.828125q0.921875 -0.25 1.78125 -0.25q1.0625 0 1.875 0.34375q0.8125 0.328125 1.265625 1.0q0.453125 0.65625 0.453125 1.546875q0 0.84375 -0.34375 1.46875q-0.328125 0.625 -0.90625 1.09375q-0.578125 0.453125 -1.484375 0.609375l-0.03125 -0.078125q0.546875 -0.171875 1.078125 0.09375q0.53125 0.25 0.953125 0.65625q0.4375 0.390625 0.703125 0.96875q0.265625 0.578125 0.265625 1.3125q0 1.09375 -0.5 1.96875q-0.484375 0.859375 -1.484375 1.359375q-0.984375 0.5 -2.359375 0.5q-0.765625 0 -1.671875 -0.171875q-0.890625 -0.1875 -1.875 -0.5625l0 -2.4375l1.671875 0q0.34375 1.046875 0.75 1.390625q0.40625 0.328125 1.140625 0.328125q0.96875 0 1.4375 -0.5q0.484375 -0.515625 0.484375 -1.578125q0 -1.109375 -0.65625 -1.671875q-0.65625 -0.578125 -1.984375 -0.578125l-1.140625 0l0 -1.46875q1.4375 -0.078125 2.15625 -0.421875q0.71875 -0.34375 1.046875 -0.859375q0.34375 -0.515625 0.34375 -1.140625q0 -0.828125 -0.40625 -1.234375q-0.40625 -0.421875 -1.234375 -0.421875q-0.671875 0 -1.109375 0.375q-0.421875 0.359375 -0.6875 1.421875l-1.6875 0z" fill-rule="nonzero"/><path fill="#000000" fill-opacity="0.0" d="m197.52493 430.92914l278.99213 -331.5643" fill-rule="evenodd"/><path stroke="#000000" stroke-width="2.1627296587926508" stroke-miterlimit="63.384754" stroke-linecap="butt" d="m197.52493 430.92914l278.99213 -331.5643" fill-rule="evenodd"/><path fill="#000000" fill-opacity="0.0" d="m489.1601 265.23096l90.834656 103.811035" fill-rule="evenodd"/><path stroke="#000000" stroke-width="2.1627296587926508" stroke-miterlimit="63.384754" stroke-linecap="butt" d="m489.1601 265.23096l90.834656 103.811035" fill-rule="evenodd"/><path fill="#ffffff" d="m523.2175 301.13516l22.722412 0l0 32.0l-22.722412 0l0 -32.0z" fill-rule="nonzero"/><path fill="#000000" fill-opacity="0.0" d="m523.2175 305.97507l12.885559 0l0 31.276825l-12.885559 0l0 -31.276825z" fill-rule="nonzero"/><path fill="#000000" d="m530.54565 317.76642l1.234375 -1.578125q0.25 -0.3125 0.375 -0.5625q0.140625 -0.25 0.140625 -0.46875q0 -0.046875 -0.078125 -0.109375q-0.078125 -0.0625 -0.84375 -0.21875l0 -1.625l5.359375 0l0 1.578125q-0.78125 0.234375 -1.234375 0.609375q-0.453125 0.359375 -1.15625 1.234375l-2.4375 2.984375l2.71875 3.640625q0.609375 0.8125 1.046875 1.21875q0.453125 0.40625 1.234375 0.6875l0 1.578125l-6.328125 0l0 -1.671875q1.078125 -0.125 1.078125 -0.3125q0 -0.1875 -0.0625 -0.34375q-0.0625 -0.15625 -0.265625 -0.421875l-1.453125 -2.046875l-1.5625 2.015625q-0.1875 0.25 -0.28125 0.40625q-0.078125 0.15625 -0.078125 0.328125q0 0.125 0.078125 0.203125q0.09375 0.078125 0.921875 0.15625l0 1.6875l-5.4375 0l0 -1.578125q0.734375 -0.25 1.015625 -0.453125q0.296875 -0.203125 0.625 -0.53125q0.34375 -0.34375 0.90625 -1.046875l2.4375 -3.03125l-2.515625 -3.453125q-0.5625 -0.75 -0.859375 -1.0625q-0.296875 -0.328125 -0.53125 -0.46875q-0.234375 -0.15625 -0.828125 -0.3125l0 -1.59375l6.203125 0l0 1.640625q-1.03125 0.15625 -1.03125 0.34375q0 0.1875 0.09375 0.40625q0.09375 0.21875 0.359375 0.53125l1.15625 1.640625z" fill-rule="nonzero"/><path fill="#010000" fill-opacity="0.0" d="m536.1031 322.89935l9.836853 0l0 20.844788l-9.836853 0l0 -20.844788z" fill-rule="nonzero"/><path fill="#000000" d="m538.82184 336.15704l0 -0.90625q1.46875 0 2.265625 -0.484375q0.8125 -0.484375 1.3125 -1.46875q0.515625 -0.984375 0.921875 -2.515625l0.046875 0.0625q-0.578125 0.6875 -1.34375 0.953125q-0.75 0.25 -1.640625 0.25q-1.09375 0 -1.875 -0.484375q-0.765625 -0.484375 -1.15625 -1.34375q-0.375 -0.859375 -0.375 -1.984375q0 -0.84375 0.28125 -1.609375q0.28125 -0.765625 0.84375 -1.34375q0.5625 -0.578125 1.40625 -0.90625q0.84375 -0.34375 1.921875 -0.34375q2.0 0 3.046875 1.375q1.046875 1.375 1.046875 3.859375q0 2.25 -0.75 3.90625q-0.734375 1.65625 -2.078125 2.59375q-1.34375 0.9375 -3.328125 1.125l-0.546875 -0.734375zm2.15625 -5.734375q0.296875 0 0.5625 -0.046875q0.28125 -0.046875 0.53125 -0.140625q0.25 -0.109375 0.484375 -0.265625q0.25 -0.15625 0.453125 -0.328125q0.03125 -0.015625 0.0625 -0.078125q0.03125 -0.0625 0.046875 -0.1875q0.03125 -0.140625 0.03125 -0.5q0 -1.140625 -0.21875 -1.90625q-0.203125 -0.78125 -0.609375 -1.125q-0.40625 -0.359375 -0.984375 -0.359375q-0.5625 0 -0.9375 0.1875q-0.359375 0.1875 -0.609375 0.53125q-0.234375 0.328125 -0.359375 0.8125q-0.109375 0.46875 -0.109375 1.046875q0 1.171875 0.4375 1.765625q0.453125 0.59375 1.21875 0.59375z" fill-rule="nonzero"/><path fill="#000000" fill-opacity="0.0" d="m141.07742 133.96588l58.992126 0l0 51.716537l-58.992126 0z" fill-rule="evenodd"/><path fill="#ffffff" d="m158.24258 142.96588l24.661804 0l0 32.0l-24.661804 0l0 -32.0z" fill-rule="nonzero"/><path fill="#000000" fill-opacity="0.0" d="m158.24258 147.80576l14.824936 0l0 31.27684l-14.824936 0l0 -31.27684z" fill-rule="nonzero"/><path fill="#000000" d="m164.03946 168.3315l0.09375 2.046875q0 0.8125 0.046875 1.140625q0.046875 0.34375 0.125 0.46875q0.078125 0.140625 0.25 0.234375q0.1875 0.109375 1.171875 0.296875l0 1.640625l-6.40625 0l0 -1.609375q0.828125 -0.21875 1.015625 -0.3125q0.203125 -0.078125 0.28125 -0.234375q0.09375 -0.140625 0.125 -0.53125q0.046875 -0.375 0.046875 -1.09375l0 -11.171875q0 -0.921875 -0.03125 -1.28125q-0.015625 -0.359375 -0.0625 -0.53125q-0.046875 -0.171875 -0.125 -0.25q-0.0625 -0.078125 -0.25 -0.15625q-0.171875 -0.078125 -1.125 -0.265625l0 -1.671875l3.59375 -0.140625l1.390625 0l-0.515625 2.5l-0.15625 -0.140625q0.5625 -0.859375 1.0625 -1.265625q0.5 -0.40625 1.046875 -0.671875q0.5625 -0.265625 1.078125 -0.390625q0.53125 -0.125 1.109375 -0.125q2.4375 0 3.71875 1.796875q1.28125 1.796875 1.28125 5.0625q0 2.265625 -0.71875 3.859375q-0.703125 1.59375 -2.078125 2.421875q-1.375 0.8125 -3.25 0.8125q-1.015625 0 -1.859375 -0.171875q-0.84375 -0.15625 -0.859375 -0.265625zm0.09375 -5.0q0 1.1875 0.125 1.765625q0.140625 0.578125 0.4375 0.90625q0.296875 0.3125 0.734375 0.484375q0.4375 0.171875 1.21875 0.171875q1.265625 0 1.9375 -1.109375q0.6875 -1.125 0.6875 -3.515625q0 -4.5625 -2.4375 -4.5625q-0.625 0 -1.046875 0.1875q-0.421875 0.1875 -0.875 0.625q-0.453125 0.421875 -0.625 0.796875q-0.15625 0.375 -0.15625 0.8125l0 3.4375z" fill-rule="nonzero"/><path fill="#010000" fill-opacity="0.0" d="m173.06752 164.73007l9.836868 0l0 20.844788l-9.836868 0l0 -20.844788z" fill-rule="nonzero"/><path fill="#000000" d="m179.81752 175.94087q0 0.46875 0.03125 0.65625q0.046875 0.1875 0.125 0.28125q0.078125 0.09375 0.28125 0.15625q0.21875 0.0625 0.59375 0.109375q0.390625 0.046875 1.390625 0.078125l0 1.34375l-7.140625 0l0 -1.34375q1.28125 -0.046875 1.640625 -0.109375q0.375 -0.078125 0.515625 -0.171875q0.140625 -0.09375 0.203125 -0.265625q0.0625 -0.1875 0.0625 -0.734375l0 -7.03125q0 -0.234375 -0.03125 -0.265625q-0.03125 -0.046875 -0.078125 -0.046875q-0.1875 0 -0.65625 0.265625q-0.453125 0.265625 -1.53125 0.96875l-0.734375 -1.3125l4.453125 -2.65625l0.9375 0q-0.0625 1.21875 -0.0625 2.671875l0 7.40625z" fill-rule="nonzero"/><path fill="#000000" fill-opacity="0.0" d="m141.07742 504.2966l58.992126 0l0 51.716522l-58.992126 0z" fill-rule="evenodd"/><path fill="#ffffff" d="m158.24258 513.2966l24.661804 0l0 32.0l-24.661804 0l0 -32.0z" fill-rule="nonzero"/><path fill="#000000" fill-opacity="0.0" d="m158.24258 518.1365l14.824936 0l0 31.276855l-14.824936 0l0 -31.276855z" fill-rule="nonzero"/><path fill="#000000" d="m164.03946 538.66223l0.09375 2.046875q0 0.8125 0.046875 1.140625q0.046875 0.34375 0.125 0.46875q0.078125 0.140625 0.25 0.234375q0.1875 0.109375 1.171875 0.296875l0 1.640625l-6.40625 0l0 -1.609375q0.828125 -0.21875 1.015625 -0.3125q0.203125 -0.078125 0.28125 -0.234375q0.09375 -0.140625 0.125 -0.53125q0.046875 -0.375 0.046875 -1.09375l0 -11.171875q0 -0.921875 -0.03125 -1.28125q-0.015625 -0.359375 -0.0625 -0.53125q-0.046875 -0.171875 -0.125 -0.25q-0.0625 -0.078125 -0.25 -0.15625q-0.171875 -0.078125 -1.125 -0.265625l0 -1.671875l3.59375 -0.140625l1.390625 0l-0.515625 2.5l-0.15625 -0.140625q0.5625 -0.859375 1.0625 -1.265625q0.5 -0.40625 1.046875 -0.671875q0.5625 -0.265625 1.078125 -0.390625q0.53125 -0.125 1.109375 -0.125q2.4375 0 3.71875 1.796875q1.28125 1.796875 1.28125 5.0625q0 2.265625 -0.71875 3.859375q-0.703125 1.59375 -2.078125 2.421875q-1.375 0.8125 -3.25 0.8125q-1.015625 0 -1.859375 -0.171875q-0.84375 -0.15625 -0.859375 -0.265625zm0.09375 -5.0q0 1.1875 0.125 1.765625q0.140625 0.578125 0.4375 0.90625q0.296875 0.3125 0.734375 0.484375q0.4375 0.171875 1.21875 0.171875q1.265625 0 1.9375 -1.109375q0.6875 -1.125 0.6875 -3.515625q0 -4.5625 -2.4375 -4.5625q-0.625 0 -1.046875 0.1875q-0.421875 0.1875 -0.875 0.625q-0.453125 0.421875 -0.625 0.796875q-0.15625 0.375 -0.15625 0.8125l0 3.4375z" fill-rule="nonzero"/><path fill="#010000" fill-opacity="0.0" d="m173.06752 535.0608l9.836868 0l0 20.844788l-9.836868 0l0 -20.844788z" fill-rule="nonzero"/><path fill="#000000" d="m179.52065 546.78723q0.390625 0 0.578125 -0.03125q0.203125 -0.046875 0.296875 -0.109375q0.09375 -0.078125 0.15625 -0.21875q0.078125 -0.15625 0.296875 -0.78125l1.359375 0l-0.171875 3.25l-7.84375 0l0 -0.84375q0.40625 -1.015625 1.0625 -1.984375q0.65625 -0.984375 1.828125 -2.296875q0.984375 -1.109375 1.4375 -1.671875q0.46875 -0.578125 0.671875 -1.0q0.21875 -0.4375 0.3125 -0.796875q0.109375 -0.359375 0.109375 -0.71875q0 -0.578125 -0.1875 -1.0q-0.171875 -0.421875 -0.515625 -0.640625q-0.328125 -0.234375 -0.875 -0.234375q-1.34375 0 -1.921875 1.8125l-1.671875 0l0 -2.265625q1.28125 -0.59375 2.234375 -0.828125q0.96875 -0.234375 1.734375 -0.234375q1.75 0 2.6875 0.8125q0.9375 0.796875 0.9375 2.3125q0 0.5 -0.109375 0.9375q-0.09375 0.421875 -0.3125 0.828125q-0.203125 0.40625 -0.546875 0.875q-0.34375 0.453125 -0.75 0.90625q-0.40625 0.453125 -1.390625 1.484375q-1.625 1.71875 -2.046875 2.4375l2.640625 0z" fill-rule="nonzero"/><path fill="#000000" fill-opacity="0.0" d="m577.78345 441.91077l58.992126 0l0 51.716522l-58.992126 0z" fill-rule="evenodd"/><path fill="#ffffff" d="m594.9486 450.91077l24.661804 0l0 32.0l-24.661804 0l0 -32.0z" fill-rule="nonzero"/><path fill="#000000" fill-opacity="0.0" d="m594.9486 455.75064l14.824951 0l0 31.276855l-14.824951 0l0 -31.276855z" fill-rule="nonzero"/><path fill="#000000" d="m600.7455 476.2764l0.09375 2.046875q0 0.8125 0.046875 1.140625q0.046875 0.34375 0.125 0.46875q0.078125 0.140625 0.25 0.234375q0.1875 0.109375 1.171875 0.296875l0 1.640625l-6.40625 0l0 -1.609375q0.828125 -0.21875 1.015625 -0.3125q0.203125 -0.078125 0.28125 -0.234375q0.09375 -0.140625 0.125 -0.53125q0.046875 -0.375 0.046875 -1.09375l0 -11.171875q0 -0.921875 -0.03125 -1.28125q-0.015625 -0.359375 -0.0625 -0.53125q-0.046875 -0.171875 -0.125 -0.25q-0.0625 -0.078125 -0.25 -0.15625q-0.171875 -0.078125 -1.125 -0.265625l0 -1.671875l3.59375 -0.140625l1.390625 0l-0.515625 2.5l-0.15625 -0.140625q0.5625 -0.859375 1.0625 -1.265625q0.5 -0.40625 1.046875 -0.671875q0.5625 -0.265625 1.078125 -0.390625q0.53125 -0.125 1.109375 -0.125q2.4375 0 3.71875 1.796875q1.28125 1.796875 1.28125 5.0625q0 2.265625 -0.71875 3.859375q-0.703125 1.59375 -2.078125 2.421875q-1.375 0.8125 -3.25 0.8125q-1.015625 0 -1.859375 -0.171875q-0.84375 -0.15625 -0.859375 -0.265625zm0.09375 -5.0q0 1.1875 0.125 1.765625q0.140625 0.578125 0.4375 0.90625q0.296875 0.3125 0.734375 0.484375q0.4375 0.171875 1.21875 0.171875q1.265625 0 1.9375 -1.109375q0.6875 -1.125 0.6875 -3.515625q0 -4.5625 -2.4375 -4.5625q-0.625 0 -1.046875 0.1875q-0.421875 0.1875 -0.875 0.625q-0.453125 0.421875 -0.625 0.796875q-0.15625 0.375 -0.15625 0.8125l0 3.4375z" fill-rule="nonzero"/><path fill="#010000" fill-opacity="0.0" d="m609.77356 472.67496l9.836853 0l0 20.844788l-9.836853 0l0 -20.844788z" fill-rule="nonzero"/><path fill="#000000" d="m611.14856 477.12015l0 -2.234375q1.25 -0.59375 2.15625 -0.828125q0.921875 -0.25 1.78125 -0.25q1.0625 0 1.875 0.34375q0.8125 0.328125 1.265625 1.0q0.453125 0.65625 0.453125 1.546875q0 0.84375 -0.34375 1.46875q-0.328125 0.625 -0.90625 1.09375q-0.578125 0.453125 -1.484375 0.609375l-0.03125 -0.078125q0.546875 -0.171875 1.078125 0.09375q0.53125 0.25 0.953125 0.65625q0.4375 0.390625 0.703125 0.96875q0.265625 0.578125 0.265625 1.3125q0 1.09375 -0.5 1.96875q-0.484375 0.859375 -1.484375 1.359375q-0.984375 0.5 -2.359375 0.5q-0.765625 0 -1.671875 -0.171875q-0.890625 -0.1875 -1.875 -0.5625l0 -2.4375l1.671875 0q0.34375 1.046875 0.75 1.390625q0.40625 0.328125 1.140625 0.328125q0.96875 0 1.4375 -0.5q0.484375 -0.515625 0.484375 -1.578125q0 -1.109375 -0.65625 -1.671875q-0.65625 -0.578125 -1.984375 -0.578125l-1.140625 0l0 -1.46875q1.4375 -0.078125 2.15625 -0.421875q0.71875 -0.34375 1.046875 -0.859375q0.34375 -0.515625 0.34375 -1.140625q0 -0.828125 -0.40625 -1.234375q-0.40625 -0.421875 -1.234375 -0.421875q-0.671875 0 -1.109375 0.375q-0.421875 0.359375 -0.6875 1.421875l-1.6875 0z" fill-rule="nonzero"/><path fill="#000000" fill-opacity="0.0" d="m297.13123 323.12335l41.5748 0l0 51.716553l-41.5748 0z" fill-rule="evenodd"/><path fill="#ffffff" d="m306.5574 332.12335l22.722473 0l0 32.0l-22.722473 0l0 -32.0z" fill-rule="nonzero"/><path fill="#000000" fill-opacity="0.0" d="m306.5574 336.96323l12.88559 0l0 31.276855l-12.88559 0l0 -31.276855z" fill-rule="nonzero"/><path fill="#000000" d="m313.88553 348.7546l1.234375 -1.578125q0.25 -0.3125 0.375 -0.5625q0.140625 -0.25 0.140625 -0.46875q0 -0.046875 -0.078125 -0.109375q-0.078125 -0.0625 -0.84375 -0.21875l0 -1.625l5.359375 0l0 1.578125q-0.78125 0.234375 -1.234375 0.609375q-0.453125 0.359375 -1.15625 1.234375l-2.4375 2.984375l2.71875 3.640625q0.609375 0.8125 1.046875 1.21875q0.453125 0.40625 1.234375 0.6875l0 1.578125l-6.328125 0l0 -1.671875q1.078125 -0.125 1.078125 -0.3125q0 -0.1875 -0.0625 -0.34375q-0.0625 -0.15625 -0.265625 -0.421875l-1.453125 -2.046875l-1.5625 2.015625q-0.1875 0.25 -0.28125 0.40625q-0.078125 0.15625 -0.078125 0.328125q0 0.125 0.078125 0.203125q0.09375 0.078125 0.921875 0.15625l0 1.6875l-5.4375 0l0 -1.578125q0.734375 -0.25 1.015625 -0.453125q0.296875 -0.203125 0.625 -0.53125q0.34375 -0.34375 0.90625 -1.046875l2.4375 -3.03125l-2.515625 -3.453125q-0.5625 -0.75 -0.859375 -1.0625q-0.296875 -0.328125 -0.53125 -0.46875q-0.234375 -0.15625 -0.828125 -0.3125l0 -1.59375l6.203125 0l0 1.640625q-1.03125 0.15625 -1.03125 0.34375q0 0.1875 0.09375 0.40625q0.09375 0.21875 0.359375 0.53125l1.15625 1.640625z" fill-rule="nonzero"/><path fill="#010000" fill-opacity="0.0" d="m319.443 353.88754l9.836884 0l0 20.844788l-9.836884 0l0 -20.844788z" fill-rule="nonzero"/><path fill="#000000" d="m326.83362 361.20773l0.03125 -0.125q1.046875 0.21875 1.609375 1.046875q0.5625 0.828125 0.5625 1.96875q0 1.125 -0.546875 1.984375q-0.53125 0.859375 -1.546875 1.328125q-1.0 0.453125 -2.3125 0.453125q-1.234375 0 -2.203125 -0.421875q-0.953125 -0.4375 -1.484375 -1.25q-0.53125 -0.828125 -0.53125 -1.953125q0 -0.828125 0.28125 -1.453125q0.296875 -0.625 0.765625 -1.03125q0.46875 -0.40625 1.15625 -0.484375l-0.03125 0.125q-2.0625 -0.71875 -2.0625 -2.921875q0 -1.0 0.546875 -1.78125q0.5625 -0.796875 1.546875 -1.234375q0.984375 -0.4375 2.171875 -0.4375q1.328125 0 2.25 0.390625q0.921875 0.390625 1.40625 1.140625q0.5 0.75 0.5 1.796875q0 1.0625 -0.53125 1.84375q-0.53125 0.765625 -1.578125 1.015625zm-3.953125 -2.796875q0 0.453125 0.09375 0.84375q0.109375 0.390625 0.328125 0.65625q0.21875 0.265625 0.578125 0.4375q0.359375 0.15625 0.90625 0.15625q0.625 0 1.015625 -0.21875q0.390625 -0.234375 0.59375 -0.6875q0.203125 -0.453125 0.203125 -1.09375q0 -0.6875 -0.234375 -1.140625q-0.234375 -0.453125 -0.640625 -0.671875q-0.40625 -0.21875 -0.953125 -0.21875q-0.9375 0 -1.421875 0.5q-0.46875 0.484375 -0.46875 1.4375zm-0.09375 5.6875q0 0.515625 0.109375 0.953125q0.109375 0.4375 0.34375 0.71875q0.234375 0.28125 0.59375 0.46875q0.375 0.171875 0.9375 0.171875q0.609375 0 1.015625 -0.234375q0.421875 -0.25 0.640625 -0.734375q0.234375 -0.484375 0.234375 -1.1875q0 -0.75 -0.25 -1.265625q-0.25 -0.515625 -0.6875 -0.78125q-0.421875 -0.265625 -1.0 -0.265625q-0.5625 0 -0.9375 0.171875q-0.359375 0.171875 -0.578125 0.453125q-0.21875 0.265625 -0.328125 0.65625q-0.09375 0.390625 -0.09375 0.875z" fill-rule="nonzero"/><path fill="#000000" fill-opacity="0.0" d="m409.13123 131.12335l41.5748 0l0 51.716537l-41.5748 0z" fill-rule="evenodd"/><path fill="#ffffff" d="m418.5574 140.12335l22.722473 0l0 32.0l-22.722473 0l0 -32.0z" fill-rule="nonzero"/><path fill="#000000" fill-opacity="0.0" d="m418.5574 144.96324l12.88559 0l0 31.27684l-12.88559 0l0 -31.27684z" fill-rule="nonzero"/><path fill="#000000" d="m425.88553 156.75461l1.234375 -1.578125q0.25 -0.3125 0.375 -0.5625q0.140625 -0.25 0.140625 -0.46875q0 -0.046875 -0.078125 -0.109375q-0.078125 -0.0625 -0.84375 -0.21875l0 -1.625l5.359375 0l0 1.578125q-0.78125 0.234375 -1.234375 0.609375q-0.453125 0.359375 -1.15625 1.234375l-2.4375 2.984375l2.71875 3.640625q0.609375 0.8125 1.046875 1.21875q0.453125 0.40625 1.234375 0.6875l0 1.578125l-6.328125 0l0 -1.671875q1.078125 -0.125 1.078125 -0.3125q0 -0.1875 -0.0625 -0.34375q-0.0625 -0.15625 -0.265625 -0.421875l-1.453125 -2.046875l-1.5625 2.015625q-0.1875 0.25 -0.28125 0.40625q-0.078125 0.15625 -0.078125 0.328125q0 0.125 0.078125 0.203125q0.09375 0.078125 0.921875 0.15625l0 1.6875l-5.4375 0l0 -1.578125q0.734375 -0.25 1.015625 -0.453125q0.296875 -0.203125 0.625 -0.53125q0.34375 -0.34375 0.90625 -1.046875l2.4375 -3.03125l-2.515625 -3.453125q-0.5625 -0.75 -0.859375 -1.0625q-0.296875 -0.328125 -0.53125 -0.46875q-0.234375 -0.15625 -0.828125 -0.3125l0 -1.59375l6.203125 0l0 1.640625q-1.03125 0.15625 -1.03125 0.34375q0 0.1875 0.09375 0.40625q0.09375 0.21875 0.359375 0.53125l1.15625 1.640625z" fill-rule="nonzero"/><path fill="#010000" fill-opacity="0.0" d="m431.443 161.88754l9.836884 0l0 20.844803l-9.836884 0l0 -20.844803z" fill-rule="nonzero"/><path fill="#000000" d="m437.89612 173.61398q0.390625 0 0.578125 -0.03125q0.203125 -0.046875 0.296875 -0.109375q0.09375 -0.078125 0.15625 -0.21875q0.078125 -0.15625 0.296875 -0.78125l1.359375 0l-0.171875 3.25l-7.84375 0l0 -0.84375q0.40625 -1.015625 1.0625 -1.984375q0.65625 -0.984375 1.828125 -2.296875q0.984375 -1.109375 1.4375 -1.671875q0.46875 -0.578125 0.671875 -1.0q0.21875 -0.4375 0.3125 -0.796875q0.109375 -0.359375 0.109375 -0.71875q0 -0.578125 -0.1875 -1.0q-0.171875 -0.421875 -0.515625 -0.640625q-0.328125 -0.234375 -0.875 -0.234375q-1.34375 0 -1.921875 1.8125l-1.671875 0l0 -2.265625q1.28125 -0.59375 2.234375 -0.828125q0.96875 -0.234375 1.734375 -0.234375q1.75 0 2.6875 0.8125q0.9375 0.796875 0.9375 2.3125q0 0.5 -0.109375 0.9375q-0.09375 0.421875 -0.3125 0.828125q-0.203125 0.40625 -0.546875 0.875q-0.34375 0.453125 -0.75 0.90625q-0.40625 0.453125 -1.390625 1.484375q-1.625 1.71875 -2.046875 2.4375l2.640625 0z" fill-rule="nonzero"/></g></svg>